<?xml version="1.0" encoding="UTF-8"?>
<svg version="1.1" xmlns="http://www.w3.org/2000/svg" width="500" height="500">
<path d="M0 0 C165 0 330 0 500 0 C500 165 500 330 500 500 C335 500 170 500 0 500 C0 335 0 170 0 0 Z " fill="#FEFEFE" transform="translate(0,0)"/>
<path d="M0 0 C3.3 0 6.6 0 10 0 C10 15.18 10 30.36 10 46 C6.7 46 3.4 46 0 46 C0 45.34 0 44.68 0 44 C-0.845625 44.495 -1.69125 44.99 -2.5625 45.5 C-6.44294451 47.19328488 -8.80900264 47.45719971 -13 47 C-17.56951925 45.08717799 -19.86027954 42.43793873 -22 38 C-22.7878555 32.65213238 -22.6747335 28.39944725 -20.3125 23.5 C-17.48155109 20.43951469 -15.34197375 18.29988688 -11.078125 17.75390625 C-6.5793271 17.61014767 -4.42619232 18.22952307 0 20 C0 13.4 0 6.8 0 0 Z " fill="#0B0B0B" transform="translate(328,218)"/>
<path d="M0 0 C3.89195522 1.98135902 6.94325506 4.10300958 9 8 C9.33 10.64 9.66 13.28 10 16 C3.4 16 -3.2 16 -10 16 C-9.34 17.32 -8.68 18.64 -8 20 C-3.24940454 20.32007889 -3.24940454 20.32007889 1.125 18.8125 C1.74375 18.544375 2.3625 18.27625 3 18 C5.75 19.375 5.75 19.375 8 21 C7.9375 22.75 7.9375 22.75 7 25 C2.45707821 28.40719134 -1.10484599 29.66222579 -6.7890625 29.390625 C-11.37735784 28.57997211 -14.73182852 26.39498863 -17.875 22.9375 C-20.4320827 18.53363535 -20.87959962 13.95699599 -20 9 C-15.3408316 0.94130808 -8.95981775 -1.16067149 0 0 Z " fill="#0E0E0E" transform="translate(235,236)"/>
<path d="M0 0 C2.70592511 2.38379117 4.2349343 3.9917875 5.625 7.3125 C5.625 9.6225 5.625 11.9325 5.625 14.3125 C-0.645 14.3125 -6.915 14.3125 -13.375 14.3125 C-12.715 15.6325 -12.055 16.9525 -11.375 18.3125 C-6.4933588 18.4138353 -6.4933588 18.4138353 -1.6875 17.6875 C1.10837396 17.23411503 2.2691079 17.82916053 4.625 19.3125 C3.22940273 22.6851934 1.7328412 24.39295102 -1.375 26.3125 C-5.14279795 27.79270634 -9.39432072 27.88007277 -13.375 27.3125 C-18.0064797 24.77829412 -21.68532562 22.38152315 -23.375 17.3125 C-24.07990916 12.80268347 -24.33467114 8.93128594 -21.953125 4.9140625 C-16.1218485 -1.98877336 -8.40980209 -4.20490104 0 0 Z " fill="#0C0C0C" transform="translate(297.375,237.6875)"/>
<path d="M0 0 C0.87785156 0.01546875 1.75570312 0.0309375 2.66015625 0.046875 C4.9375 0.25 4.9375 0.25 6.9375 1.25 C6.0625 6 6.0625 6 4.9375 8.25 C2.375 8.875 2.375 8.875 -0.0625 9.25 C-0.3925 12.55 -0.7225 15.85 -1.0625 19.25 C0.9175 19.25 2.8975 19.25 4.9375 19.25 C4.9375 21.56 4.9375 23.87 4.9375 26.25 C2.9575 26.25 0.9775 26.25 -1.0625 26.25 C-1.0625 32.85 -1.0625 39.45 -1.0625 46.25 C-4.3625 46.25 -7.6625 46.25 -11.0625 46.25 C-11.0625 39.65 -11.0625 33.05 -11.0625 26.25 C-12.3825 26.25 -13.7025 26.25 -15.0625 26.25 C-15.0625 23.61 -15.0625 20.97 -15.0625 18.25 C-13.7425 18.25 -12.4225 18.25 -11.0625 18.25 C-11.11470703 17.37988281 -11.11470703 17.37988281 -11.16796875 16.4921875 C-11.37675362 10.46725257 -10.58980298 6.48188442 -6.7734375 1.6015625 C-4.44626185 -0.2368 -2.9299968 -0.08630329 0 0 Z " fill="#0C0C0C" transform="translate(156.0625,217.75)"/>
<path d="M0 0 C3.3 0 6.6 0 10 0 C10 3.63 10 7.26 10 11 C11.65 11 13.3 11 15 11 C15 13.31 15 15.62 15 18 C13.35 18 11.7 18 10 18 C10 21.96 10 25.92 10 30 C11.65 30 13.3 30 15 30 C15.33 32.31 15.66 34.62 16 37 C12.24952518 39.50031654 10.44143734 39.53603554 6 39 C2.84045695 36.45862841 1.28459114 34.85377341 0 31 C-0.06937062 28.77181559 -0.08457084 26.54165476 -0.0625 24.3125 C-0.05347656 23.13300781 -0.04445312 21.95351562 -0.03515625 20.73828125 C-0.02355469 19.83464844 -0.01195312 18.93101562 0 18 C-1.32 18 -2.64 18 -4 18 C-4 15.36 -4 12.72 -4 10 C-2.68 10 -1.36 10 0 10 C0 6.7 0 3.4 0 0 Z " fill="#101010" transform="translate(197,226)"/>
<path d="M0 0 C2.97 0 5.94 0 9 0 C9 15.18 9 30.36 9 46 C6.03 46 3.06 46 0 46 C0 30.82 0 15.64 0 0 Z " fill="#000000" transform="translate(180,218)"/>
<path d="M0 0 C0.66 0.33 1.32 0.66 2 1 C1.45276317 4.37462715 0.9451 6.08235 -1 9 C-3.66666667 9 -6.33333333 9 -9 9 C-11.48044315 12.72066472 -11.44381173 15.86540474 -11.625 20.1875 C-11.68300781 21.31188477 -11.68300781 21.31188477 -11.7421875 22.45898438 C-11.83628216 24.30559199 -11.91922319 26.1527619 -12 28 C-14.97 28 -17.94 28 -21 28 C-21 19.09 -21 10.18 -21 1 C-18.03 1 -15.06 1 -12 1 C-12 1.99 -12 2.98 -12 4 C-11.34 4 -10.68 4 -10 4 C-10 3.34 -10 2.68 -10 2 C-6.33134759 -0.44576827 -4.32799657 -0.23607254 0 0 Z " fill="#010101" transform="translate(270,236)"/>
<path d="M0 0 C2.97 0 5.94 0 9 0 C9 8.91 9 17.82 9 27 C6.03 27 3.06 27 0 27 C0 18.09 0 9.18 0 0 Z " fill="#000000" transform="translate(164,237)"/>
<path d="M0 0 C1.875 1.0625 1.875 1.0625 3 3 C3.36841966 6.43858351 3.58367385 8.90131981 1.9375 12 C-1.19442656 13.61647822 -3.67185286 12.78665296 -7 12 C-9 10 -9 10 -9.3125 6.5625 C-9 3 -9 3 -7.875 1.0625 C-5.11019567 -0.50422245 -3.11811483 -0.38976435 0 0 Z " fill="#F5F5F5" transform="translate(325,244)"/>
<path d="M0 0 C1.9375 1.0625 1.9375 1.0625 3 3 C2.875 6.5625 2.875 6.5625 2 10 C-1 12 -1 12 -4.0625 11.8125 C-7 11 -7 11 -9 8 C-9.35384949 5.16920408 -9.3920891 3.63169911 -7.875 1.1875 C-5.12844028 -0.55198782 -3.18153026 -0.39769128 0 0 Z " fill="#FF3737" transform="translate(353,253)"/>
<path d="M0 0 C1.33359073 6.42548263 1.33359073 6.42548263 -0.125 8.9375 C-2.63647631 10.36066991 -4.15503228 10.42674516 -7 10 C-8.8125 8.8125 -8.8125 8.8125 -10 7 C-10.42674516 4.15503228 -10.36066991 2.63647631 -8.9375 0.125 C-5.88430685 -1.64782183 -3.33588292 -0.69235306 0 0 Z " fill="#0A0A0A" transform="translate(173,221)"/>
<path d="M0 0 C2.31 0.33 4.62 0.66 7 1 C7.33 1.99 7.66 2.98 8 4 C4.7 4 1.4 4 -2 4 C-1.34 2.68 -0.68 1.36 0 0 Z " fill="#F0F0F0" transform="translate(227,242)"/>
<path d="M0 0 C2.31 0.33 4.62 0.66 7 1 C7.33 1.99 7.66 2.98 8 4 C4.7 4 1.4 4 -2 4 C-1.34 2.68 -0.68 1.36 0 0 Z " fill="#F3F3F3" transform="translate(286,242)"/>
</svg>
