<?xml version="1.0" encoding="UTF-8"?>
<svg version="1.1" xmlns="http://www.w3.org/2000/svg" width="400" height="400">
<path d="M0 0 C1.47906892 -0.02689216 2.95827483 -0.04634621 4.4375 -0.0625 C5.26121094 -0.07410156 6.08492187 -0.08570313 6.93359375 -0.09765625 C9 0 9 0 10 1 C10.07271741 3.35313555 10.08370868 5.70833668 10.0625 8.0625 C10.05347656 9.35285156 10.04445312 10.64320313 10.03515625 11.97265625 C10.02355469 12.97167969 10.01195312 13.97070312 10 15 C10.99 15 11.98 15 13 15 C12.95875 13.88625 12.9175 12.7725 12.875 11.625 C13 8 13 8 15 6 C21.32258065 5.66129032 21.32258065 5.66129032 24 7 C24 9.64 24 12.28 24 15 C25.32 15 26.64 15 28 15 C28.66 16.32 29.32 17.64 30 19 C30.680625 18.360625 31.36125 17.72125 32.0625 17.0625 C36.61337902 13.86720196 40.21730173 13.69263823 45.625 14.625 C49.38167612 16.15549768 51.36019 17.96021878 54 21 C54.33 19.02 54.66 17.04 55 15 C56.10408203 15.01740234 56.10408203 15.01740234 57.23046875 15.03515625 C58.20628906 15.04417969 59.18210938 15.05320313 60.1875 15.0625 C61.63189453 15.07990234 61.63189453 15.07990234 63.10546875 15.09765625 C65.98558375 15.08183382 65.98558375 15.08183382 68.6953125 14.4453125 C71.72479405 13.85995505 73.29219593 14.60950602 76 16 C76.99 16.99 76.99 16.99 78 18 C78.515625 17.525625 79.03125 17.05125 79.5625 16.5625 C83.92033935 13.76901324 87.76087692 13.75217538 92.75 14.75 C95.6733046 15.87434792 97.21409434 16.47872141 99 19 C99 19.66 99 20.32 99 21 C99.99 21 100.98 21 102 21 C102.2784375 20.1028125 102.2784375 20.1028125 102.5625 19.1875 C104.76794061 15.83139472 107.22714933 15.17515021 111 14 C114.9375 14.3125 114.9375 14.3125 118 15 C117.98839844 14.00097656 117.97679687 13.00195312 117.96484375 11.97265625 C117.95582031 10.68230469 117.94679688 9.39195312 117.9375 8.0625 C117.92589844 6.77472656 117.91429687 5.48695313 117.90234375 4.16015625 C118 1 118 1 119 0 C120.49738124 -0.0979057 121.99942892 -0.12974864 123.5 -0.125 C124.3146875 -0.12757813 125.129375 -0.13015625 125.96875 -0.1328125 C128 0 128 0 129 1 C129.10099488 3.72724279 129.13970529 6.42862523 129.1328125 9.15625 C129.13376923 9.97371704 129.13472595 10.79118408 129.13571167 11.63342285 C129.13639345 13.36515378 129.13453929 15.09688724 129.13037109 16.82861328 C129.12502279 19.48866482 129.13031612 22.1485475 129.13671875 24.80859375 C129.13605797 26.48697954 129.1347768 28.16536523 129.1328125 29.84375 C129.13483673 30.64478149 129.13686096 31.44581299 129.13894653 32.27111816 C129.11495079 37.88504921 129.11495079 37.88504921 128 39 C124.93454553 39.43599819 121.83933454 39.56345697 118.75 39.75 C117.46029297 39.85248047 117.46029297 39.85248047 116.14453125 39.95703125 C111.14864686 40.25724618 108.10817504 40.20926534 104 37 C102.67391178 36.31903578 101.34313399 35.64669414 100 35 C99.4225 35.639375 98.845 36.27875 98.25 36.9375 C94.46983437 40.40265182 90.21306421 40.35081016 85.25 40.27734375 C81.64656215 39.83316999 79.65754465 38.40444516 77 36 C74.31556989 31.88387383 73.65134243 28.881206 74 24 C70.04 24.495 70.04 24.495 66 25 C65.67 29.62 65.34 34.24 65 39 C61.7 39 58.4 39 55 39 C54.34 37.68 53.68 36.36 53 35 C52.401875 35.639375 51.80375 36.27875 51.1875 36.9375 C47.56307448 40.35481549 44.09276694 40.26533726 39.36328125 40.234375 C35.7964134 39.88063604 33.17790975 38.62276243 30 37 C29.67 37.495 29.34 37.99 29 38.5 C25.90818052 40.81886461 22.67448261 40.41569904 19 40 C16.1178599 39.16569629 15.33368509 38.53389615 13.75 36 C12.66606426 31.66425705 12.84462842 27.44535343 13 23 C12.01 23 11.02 23 10 23 C10.01160156 24.07121094 10.02320313 25.14242187 10.03515625 26.24609375 C10.04453299 27.64322743 10.05363331 29.04036299 10.0625 30.4375 C10.07087891 31.14455078 10.07925781 31.85160156 10.08789062 32.58007812 C10.09653588 34.38693559 10.05220011 36.19387603 10 38 C9 39 9 39 6.93359375 39.09765625 C6.10988281 39.08605469 5.28617188 39.07445312 4.4375 39.0625 C3.61121094 39.05347656 2.78492188 39.04445312 1.93359375 39.03515625 C1.29550781 39.02355469 0.65742188 39.01195312 0 39 C-1.17801202 35.46596395 -1.14349055 32.27018839 -1.1328125 28.59375 C-1.13376923 27.87264038 -1.13472595 27.15153076 -1.13571167 26.40856934 C-1.1363915 24.88549716 -1.13455093 23.36242206 -1.13037109 21.83935547 C-1.12502003 19.50872283 -1.13032269 17.1782829 -1.13671875 14.84765625 C-1.13605793 13.36718707 -1.1347767 11.88671802 -1.1328125 10.40625 C-1.13483673 9.7093103 -1.13686096 9.01237061 -1.13894653 8.29431152 C-1.12420003 5.24984271 -0.97095844 2.91287532 0 0 Z M25 23 C23.64381501 24.12534105 23.64381501 24.12534105 23.9375 27.0625 C23.958125 28.031875 23.97875 29.00125 24 30 C25.32 30.33 26.64 30.66 28 31 C27.67 28.36 27.34 25.72 27 23 C26.34 23 25.68 23 25 23 Z M114 23 C112.35444301 24.22809091 112.35444301 24.22809091 111 26 C111.22757731 28.16299211 111.22757731 28.16299211 112 30 C113.65614657 30.38218767 115.32457024 30.71395102 117 31 C118.29633621 29.93354885 118.29633621 29.93354885 118.0625 27.4375 C118.041875 26.633125 118.02125 25.82875 118 25 C116.68 24.34 115.36 23.68 114 23 Z M99 30 C99.66 30.66 100.32 31.32 101 32 C101 31.34 101 30.68 101 30 C100.34 30 99.68 30 99 30 Z " fill="#131313" transform="translate(143,173)"/>
<path d="M0 0 C0.8146875 0.00257813 1.629375 0.00515625 2.46875 0.0078125 C3.2834375 0.00523437 4.098125 0.00265625 4.9375 0 C6.96875 0.1328125 6.96875 0.1328125 7.96875 1.1328125 C8.06974488 3.86005529 8.10845529 6.56143773 8.1015625 9.2890625 C8.10251923 10.10652954 8.10347595 10.92399658 8.10446167 11.76623535 C8.10514345 13.49796628 8.10328929 15.22969974 8.09912109 16.96142578 C8.09377279 19.62147732 8.09906612 22.28136 8.10546875 24.94140625 C8.10480797 26.61979204 8.1035268 28.29817773 8.1015625 29.9765625 C8.10358673 30.77759399 8.10561096 31.57862549 8.10769653 32.40393066 C8.08370079 38.01786171 8.08370079 38.01786171 6.96875 39.1328125 C3.90329553 39.56881069 0.80808454 39.69626947 -2.28125 39.8828125 C-3.14105469 39.95113281 -4.00085938 40.01945312 -4.88671875 40.08984375 C-9.88260314 40.39005868 -12.92307496 40.34207784 -17.03125 37.1328125 C-18.35733822 36.45184828 -19.68811601 35.77950664 -21.03125 35.1328125 C-21.60875 35.7721875 -22.18625 36.4115625 -22.78125 37.0703125 C-26.54670737 40.52198176 -30.88755845 40.53328479 -35.84375 40.484375 C-40.15023285 39.79226169 -41.94439252 36.63371092 -44.34375 33.3203125 C-45.71823814 28.94694113 -45.47708475 24.47031675 -44.03125 20.1328125 C-41.38769286 16.86724191 -39.73978702 15.32962834 -35.65625 14.1953125 C-30.91404873 14.11355041 -26.91680624 14.67302703 -23.09375 17.6328125 C-22.03125 19.1328125 -22.03125 19.1328125 -22.03125 21.1328125 C-21.04125 21.1328125 -20.05125 21.1328125 -19.03125 21.1328125 C-18.845625 20.5346875 -18.66 19.9365625 -18.46875 19.3203125 C-16.26330939 15.96420722 -13.80410067 15.30796271 -10.03125 14.1328125 C-6.09375 14.4453125 -6.09375 14.4453125 -3.03125 15.1328125 C-3.04285156 14.13378906 -3.05445313 13.13476562 -3.06640625 12.10546875 C-3.07542969 10.81511719 -3.08445312 9.52476562 -3.09375 8.1953125 C-3.10535156 6.90753906 -3.11695313 5.61976563 -3.12890625 4.29296875 C-3.00230971 0.19630487 -3.00230971 0.19630487 0 0 Z M-7.03125 23.1328125 C-8.67680699 24.36090341 -8.67680699 24.36090341 -10.03125 26.1328125 C-9.80367269 28.29580461 -9.80367269 28.29580461 -9.03125 30.1328125 C-7.37510343 30.51500017 -5.70667976 30.84676352 -4.03125 31.1328125 C-2.73491379 30.06636135 -2.73491379 30.06636135 -2.96875 27.5703125 C-2.989375 26.7659375 -3.01 25.9615625 -3.03125 25.1328125 C-4.35125 24.4728125 -5.67125 23.8128125 -7.03125 23.1328125 Z M-22.03125 30.1328125 C-21.37125 30.7928125 -20.71125 31.4528125 -20.03125 32.1328125 C-20.03125 31.4728125 -20.03125 30.8128125 -20.03125 30.1328125 C-20.69125 30.1328125 -21.35125 30.1328125 -22.03125 30.1328125 Z " fill="#232323" transform="translate(264.03125,172.8671875)"/>
<path d="M0 0 C0.86625 0.12375 1.7325 0.2475 2.625 0.375 C5.57070204 1.15018475 7.59066275 2.12607103 10 4 C11 6.4375 11 6.4375 11 9 C9.9375 11.3125 9.9375 11.3125 8 13 C5 13.4375 5 13.4375 2 13 C0.3125 11.5 0.3125 11.5 -1 10 C-1.99 10 -2.98 10 -4 10 C-4 11.32 -4 12.64 -4 14 C-3.24074219 13.97679687 -2.48148438 13.95359375 -1.69921875 13.9296875 C-0.70535156 13.91164062 0.28851563 13.89359375 1.3125 13.875 C2.29863281 13.85179687 3.28476563 13.82859375 4.30078125 13.8046875 C7 14 7 14 10 16 C10.34057617 18.33837891 10.34057617 18.33837891 10.29296875 21.2265625 C10.28330078 22.2578125 10.27363281 23.2890625 10.26367188 24.3515625 C10.23853516 25.43179688 10.21339844 26.51203125 10.1875 27.625 C10.16719727 29.25695312 10.16719727 29.25695312 10.14648438 30.921875 C10.11104754 33.61507409 10.06164331 36.30729374 10 39 C8.35425434 39.02688151 6.70838587 39.04634123 5.0625 39.0625 C4.14597656 39.07410156 3.22945312 39.08570313 2.28515625 39.09765625 C0 39 0 39 -1 38 C-1.07313567 35.46950598 -1.09247527 32.96695163 -1.0625 30.4375 C-1.05798828 29.72658203 -1.05347656 29.01566406 -1.04882812 28.28320312 C-1.03700864 26.52209987 -1.01907263 24.76103964 -1 23 C-1.99 23.33 -2.98 23.66 -4 24 C-4.33 28.95 -4.66 33.9 -5 39 C-8.3 39 -11.6 39 -15 39 C-15.03738281 37.95199219 -15.07476562 36.90398437 -15.11328125 35.82421875 C-15.17894515 34.44527695 -15.24539235 33.06637229 -15.3125 31.6875 C-15.33505859 30.99720703 -15.35761719 30.30691406 -15.38085938 29.59570312 C-15.53274266 25.56442266 -15.53274266 25.56442266 -17.5546875 22.21484375 C-18.27011719 21.61349609 -18.27011719 21.61349609 -19 21 C-18.8125 17.875 -18.8125 17.875 -18 15 C-17.34 14.67 -16.68 14.34 -16 14 C-15.45941088 11.78063339 -15.45941088 11.78063339 -15.125 9.1875 C-14.35787898 4.9592739 -13.66935674 2.55743046 -10 0 C-6.25438602 -1.24853799 -3.86657968 -0.66665167 0 0 Z " fill="#444444" transform="translate(130,173)"/>
<path d="M0 0 C1.47906892 -0.02689216 2.95827483 -0.04634621 4.4375 -0.0625 C5.26121094 -0.07410156 6.08492187 -0.08570313 6.93359375 -0.09765625 C9 0 9 0 10 1 C10.07271741 3.35313555 10.08370868 5.70833668 10.0625 8.0625 C10.05347656 9.35285156 10.04445312 10.64320313 10.03515625 11.97265625 C10.02355469 12.97167969 10.01195312 13.97070312 10 15 C10.99 15 11.98 15 13 15 C13 12.69 13 10.38 13 8 C16.3 8 19.6 8 23 8 C23 10.64 23 13.28 23 16 C24.32 16 25.64 16 27 16 C27 17.98 27 19.96 27 22 C25.35 22 23.7 22 22 22 C22.33 24.64 22.66 27.28 23 30 C24.32 30.33 25.64 30.66 27 31 C27 33.31 27 35.62 27 38 C23.82178465 39.58910767 20.46060271 39.40420974 17 39 C14.32568511 37.18836733 14.04079641 36.12238923 13 33 C12.93197033 31.27204648 12.91504355 29.54164635 12.9375 27.8125 C12.94652344 26.91144531 12.95554688 26.01039063 12.96484375 25.08203125 C12.97644531 24.39496094 12.98804688 23.70789063 13 23 C12.01 23 11.02 23 10 23 C10.01160156 24.07121094 10.02320313 25.14242187 10.03515625 26.24609375 C10.04453299 27.64322743 10.05363331 29.04036299 10.0625 30.4375 C10.07087891 31.14455078 10.07925781 31.85160156 10.08789062 32.58007812 C10.09653588 34.38693559 10.05220011 36.19387603 10 38 C9 39 9 39 6.93359375 39.09765625 C6.10988281 39.08605469 5.28617188 39.07445312 4.4375 39.0625 C3.61121094 39.05347656 2.78492188 39.04445312 1.93359375 39.03515625 C1.29550781 39.02355469 0.65742188 39.01195312 0 39 C-1.17801202 35.46596395 -1.14349055 32.27018839 -1.1328125 28.59375 C-1.13376923 27.87264038 -1.13472595 27.15153076 -1.13571167 26.40856934 C-1.1363915 24.88549716 -1.13455093 23.36242206 -1.13037109 21.83935547 C-1.12502003 19.50872283 -1.13032269 17.1782829 -1.13671875 14.84765625 C-1.13605793 13.36718707 -1.1347767 11.88671802 -1.1328125 10.40625 C-1.13483673 9.7093103 -1.13686096 9.01237061 -1.13894653 8.29431152 C-1.12420003 5.24984271 -0.97095844 2.91287532 0 0 Z " fill="#111111" transform="translate(143,173)"/>
<path d="M0 0 C2.31 0 4.62 0 7 0 C7 11.88 7 23.76 7 36 C4.69 36 2.38 36 0 36 C0 35.34 0 34.68 0 34 C-0.66 34 -1.32 34 -2 34 C-2 34.66 -2 35.32 -2 36 C-11.88015082 36.61325074 -11.88015082 36.61325074 -15.625 34.5625 C-17.64923079 30.7900699 -18.19112369 27.26588075 -18 23 C-16.34299646 18.85749116 -13.81498484 16.2889909 -10 14 C-7.23917573 13.67670645 -4.79536466 13.81048375 -2 14 C-2 14.66 -2 15.32 -2 16 C-1.34 16 -0.68 16 0 16 C0 10.72 0 5.44 0 0 Z M-6 21 C-7.64555699 22.22809091 -7.64555699 22.22809091 -9 24 C-8.77242269 26.16299211 -8.77242269 26.16299211 -8 28 C-6.34385343 28.38218767 -4.67542976 28.71395102 -3 29 C-1.70366379 27.93354885 -1.70366379 27.93354885 -1.9375 25.4375 C-1.958125 24.633125 -1.97875 23.82875 -2 23 C-3.32 22.34 -4.64 21.68 -6 21 Z " fill="#121212" transform="translate(263,175)"/>
<path d="M0 0 C0.8146875 0.00257813 1.629375 0.00515625 2.46875 0.0078125 C3.2834375 0.00523437 4.098125 0.00265625 4.9375 0 C6.96875 0.1328125 6.96875 0.1328125 7.96875 1.1328125 C8.06974488 3.86005529 8.10845529 6.56143773 8.1015625 9.2890625 C8.10251923 10.10652954 8.10347595 10.92399658 8.10446167 11.76623535 C8.10514345 13.49796628 8.10328929 15.22969974 8.09912109 16.96142578 C8.09377279 19.62147732 8.09906612 22.28136 8.10546875 24.94140625 C8.10480797 26.61979204 8.1035268 28.29817773 8.1015625 29.9765625 C8.10358673 30.77759399 8.10561096 31.57862549 8.10769653 32.40393066 C8.08370079 38.01786171 8.08370079 38.01786171 6.96875 39.1328125 C3.90329553 39.56881069 0.80808454 39.69626947 -2.28125 39.8828125 C-3.14105469 39.95113281 -4.00085938 40.01945312 -4.88671875 40.08984375 C-9.88260314 40.39005868 -12.92307496 40.34207784 -17.03125 37.1328125 C-18.35733822 36.45184828 -19.68811601 35.77950664 -21.03125 35.1328125 C-22.35125 36.1228125 -23.67125 37.1128125 -25.03125 38.1328125 C-24.37125 36.8128125 -23.71125 35.4928125 -23.03125 34.1328125 C-26.34496 31.9236725 -27.3758521 31.90799697 -31.21875 32.0078125 C-32.57033203 32.03488281 -32.57033203 32.03488281 -33.94921875 32.0625 C-34.63628906 32.08570313 -35.32335937 32.10890625 -36.03125 32.1328125 C-36.36125 31.1428125 -36.69125 30.1528125 -37.03125 29.1328125 C-31.75125 29.1328125 -26.47125 29.1328125 -21.03125 29.1328125 C-21.36125 26.4928125 -21.69125 23.8528125 -22.03125 21.1328125 C-21.04125 21.1328125 -20.05125 21.1328125 -19.03125 21.1328125 C-18.845625 20.5346875 -18.66 19.9365625 -18.46875 19.3203125 C-16.26330939 15.96420722 -13.80410067 15.30796271 -10.03125 14.1328125 C-6.09375 14.4453125 -6.09375 14.4453125 -3.03125 15.1328125 C-3.04285156 14.13378906 -3.05445313 13.13476562 -3.06640625 12.10546875 C-3.07542969 10.81511719 -3.08445312 9.52476562 -3.09375 8.1953125 C-3.10535156 6.90753906 -3.11695313 5.61976563 -3.12890625 4.29296875 C-3.00230971 0.19630487 -3.00230971 0.19630487 0 0 Z M-1.03125 2.1328125 C-1.03125 7.4128125 -1.03125 12.6928125 -1.03125 18.1328125 C-1.69125 18.1328125 -2.35125 18.1328125 -3.03125 18.1328125 C-3.03125 17.4728125 -3.03125 16.8128125 -3.03125 16.1328125 C-7.95591294 15.61442693 -10.95630129 15.55271702 -14.96875 18.6328125 C-17.96301295 21.54485312 -19.06205867 23.94076948 -19.24609375 28.1015625 C-18.87722655 31.58903416 -17.72437114 34.06011116 -16.03125 37.1328125 C-13.38666621 38.45510439 -11.35363699 38.22958444 -8.40625 38.1953125 C-7.40335937 38.18628906 -6.40046875 38.17726562 -5.3671875 38.16796875 C-4.59632813 38.15636719 -3.82546875 38.14476562 -3.03125 38.1328125 C-3.03125 37.4728125 -3.03125 36.8128125 -3.03125 36.1328125 C-2.37125 36.1328125 -1.71125 36.1328125 -1.03125 36.1328125 C-1.03125 36.7928125 -1.03125 37.4528125 -1.03125 38.1328125 C1.27875 38.1328125 3.58875 38.1328125 5.96875 38.1328125 C5.96875 26.2528125 5.96875 14.3728125 5.96875 2.1328125 C3.65875 2.1328125 1.34875 2.1328125 -1.03125 2.1328125 Z M-22.03125 30.1328125 C-21.37125 30.7928125 -20.71125 31.4528125 -20.03125 32.1328125 C-20.03125 31.4728125 -20.03125 30.8128125 -20.03125 30.1328125 C-20.69125 30.1328125 -21.35125 30.1328125 -22.03125 30.1328125 Z " fill="#A0A0A0" transform="translate(264.03125,172.8671875)"/>
<path d="M0 0 C2.31 0 4.62 0 7 0 C7 12.21 7 24.42 7 37 C4.69 37 2.38 37 0 37 C0 24.79 0 12.58 0 0 Z " fill="#010101" transform="translate(144,174)"/>
<path d="M0 0 C-0.875 5.75 -0.875 5.75 -2 8 C-4.64860427 8.59355614 -7.29197322 8.74209269 -10 9 C-10.33 13.62 -10.66 18.24 -11 23 C-13.64 23 -16.28 23 -19 23 C-19 15.74 -19 8.48 -19 1 C-16.36 1 -13.72 1 -11 1 C-10.67 1.33 -10.34 1.66 -10 2 C-9.67 1.34 -9.34 0.68 -9 0 C-5.75266665 -1.2757381 -3.32967418 -0.83241855 0 0 Z " fill="#131313" transform="translate(218,188)"/>
<path d="M0 0 C3.3 0 6.6 0 10 0 C10 0.99 10 1.98 10 3 C9.67 2.34 9.34 1.68 9 1 C6.36 1 3.72 1 1 1 C1 8.26 1 15.52 1 23 C3.64 23 6.28 23 9 23 C8.98839844 22.00097656 8.97679687 21.00195312 8.96484375 19.97265625 C8.95582031 18.68230469 8.94679687 17.39195312 8.9375 16.0625 C8.92589844 14.77472656 8.91429687 13.48695313 8.90234375 12.16015625 C9 9 9 9 10 8 C12.67058851 7.85884839 15.32432238 7.95752893 18 8 C18.66 5.69 19.32 3.38 20 1 C20.99 1.66 21.98 2.32 23 3 C24.32 2.34 25.64 1.68 27 1 C25.625 3 25.625 3 24 5 C23.34 5 22.68 5 22 5 C21.525623 12.28695785 21.71329061 16.97181491 26 23 C22.94438218 21.94633868 22.01775264 21.02789701 20.25 18.25 C18.95856861 14.89227838 18.74574372 12.55958794 19 9 C16.36 9.33 13.72 9.66 11 10 C10.67 14.62 10.34 19.24 10 24 C6.7 24 3.4 24 0 24 C-0.66 22.68 -1.32 21.36 -2 20 C-2.598125 20.639375 -3.19625 21.27875 -3.8125 21.9375 C-6.89652152 24.84529172 -9.41571747 25.15346431 -13.5 25.1875 C-14.66015625 25.20876953 -14.66015625 25.20876953 -15.84375 25.23046875 C-18 25 -18 25 -21 23 C-20.26394531 23.02320313 -19.52789062 23.04640625 -18.76953125 23.0703125 C-17.30580078 23.09738281 -17.30580078 23.09738281 -15.8125 23.125 C-14.36810547 23.15980469 -14.36810547 23.15980469 -12.89453125 23.1953125 C-9.87187222 22.9913544 -7.73230015 22.26874632 -5 21 C-5 20.01 -5 19.02 -5 18 C-9.06368679 17.22596442 -12.86425173 16.9015298 -17 17 C-17.66 15.68 -18.32 14.36 -19 13 C-13.72 13 -8.44 13 -3 13 C-3.45375 11.576875 -3.9075 10.15375 -4.375 8.6875 C-4.63023437 7.88699219 -4.88546875 7.08648437 -5.1484375 6.26171875 C-5.98831811 3.77275472 -5.98831811 3.77275472 -8 1 C-5.11562221 2.29299694 -3.12780579 3.65941363 -1 6 C-0.67 4.02 -0.34 2.04 0 0 Z " fill="#CECECE" transform="translate(198,188)"/>
<path d="M0 0 C1.47906892 -0.02689216 2.95827483 -0.04634621 4.4375 -0.0625 C5.26121094 -0.07410156 6.08492187 -0.08570313 6.93359375 -0.09765625 C9 0 9 0 10 1 C10.07271741 3.35313555 10.08370868 5.70833668 10.0625 8.0625 C10.05347656 9.35285156 10.04445312 10.64320313 10.03515625 11.97265625 C10.02355469 12.97167969 10.01195312 13.97070312 10 15 C10.99 15 11.98 15 13 15 C13 12.69 13 10.38 13 8 C13.33 8 13.66 8 14 8 C14 10.64 14 13.28 14 16 C13.34 16 12.68 16 12 16 C12 17.98 12 19.96 12 22 C12.99 22 13.98 22 15 22 C15.06058594 22.90363281 15.12117188 23.80726563 15.18359375 24.73828125 C15.30927734 26.50751953 15.30927734 26.50751953 15.4375 28.3125 C15.51871094 29.48425781 15.59992188 30.65601563 15.68359375 31.86328125 C15.8867371 35.02590958 15.8867371 35.02590958 17 38 C16.34 38 15.68 38 15 38 C12.40772482 33.13948404 12.81310447 28.34728867 13 23 C12.01 23 11.02 23 10 23 C10.01160156 24.07121094 10.02320313 25.14242187 10.03515625 26.24609375 C10.04453299 27.64322743 10.05363331 29.04036299 10.0625 30.4375 C10.07087891 31.14455078 10.07925781 31.85160156 10.08789062 32.58007812 C10.09653588 34.38693559 10.05220011 36.19387603 10 38 C9 39 9 39 6.93359375 39.09765625 C6.10988281 39.08605469 5.28617188 39.07445312 4.4375 39.0625 C3.61121094 39.05347656 2.78492188 39.04445312 1.93359375 39.03515625 C1.29550781 39.02355469 0.65742188 39.01195312 0 39 C-1.17801202 35.46596395 -1.14349055 32.27018839 -1.1328125 28.59375 C-1.13376923 27.87264038 -1.13472595 27.15153076 -1.13571167 26.40856934 C-1.1363915 24.88549716 -1.13455093 23.36242206 -1.13037109 21.83935547 C-1.12502003 19.50872283 -1.13032269 17.1782829 -1.13671875 14.84765625 C-1.13605793 13.36718707 -1.1347767 11.88671802 -1.1328125 10.40625 C-1.13483673 9.7093103 -1.13686096 9.01237061 -1.13894653 8.29431152 C-1.12420003 5.24984271 -0.97095844 2.91287532 0 0 Z M1 1 C1 13.21 1 25.42 1 38 C3.31 38 5.62 38 8 38 C8 25.79 8 13.58 8 1 C5.69 1 3.38 1 1 1 Z " fill="#CBCBCB" transform="translate(143,173)"/>
<path d="M0 0 C2.64 0 5.28 0 8 0 C8 7.26 8 14.52 8 22 C5.36 22 2.72 22 0 22 C0 14.74 0 7.48 0 0 Z " fill="#090909" transform="translate(131,189)"/>
<path d="M0 0 C1.875 1.6875 1.875 1.6875 3 4 C2.875 7.125 2.875 7.125 2 10 C-1.48868651 12.32579101 -2.89718519 12.41865457 -7 12 C-9.375 10.875 -9.375 10.875 -11 9 C-11.47350184 5.75313026 -11.64576592 3.89177198 -9.6875 1.1875 C-6.28554371 -1.20646924 -3.84172565 -1.24856084 0 0 Z " fill="#FF4040" transform="translate(284,201)"/>
<path d="M0 0 C0.33 0 0.66 0 1 0 C1 5.28 1 10.56 1 16 C-0.36125 15.896875 -1.7225 15.79375 -3.125 15.6875 C-6.52653215 15.70359558 -8.72636472 15.97727573 -11.5 18 C-14.59583283 21.7149994 -15.2788654 24.23230119 -15 29 C-14.52175571 31.46086866 -13.84108989 33.62515795 -13 36 C-13.7425 35.608125 -14.485 35.21625 -15.25 34.8125 C-16.1575 34.544375 -17.065 34.27625 -18 34 C-20.32511472 35.26352052 -20.32511472 35.26352052 -22 37 C-21.34 35.68 -20.68 34.36 -20 33 C-23.31371 30.79086 -24.3446021 30.77518447 -28.1875 30.875 C-29.53908203 30.90207031 -29.53908203 30.90207031 -30.91796875 30.9296875 C-31.60503906 30.95289063 -32.29210937 30.97609375 -33 31 C-33.33 30.01 -33.66 29.02 -34 28 C-28.72 28 -23.44 28 -18 28 C-18.33 25.36 -18.66 22.72 -19 20 C-18.01 20 -17.02 20 -16 20 C-15.814375 19.401875 -15.62875 18.80375 -15.4375 18.1875 C-13.23205939 14.83139472 -10.77285067 14.17515021 -7 13 C-3.0625 13.3125 -3.0625 13.3125 0 14 C0 9.38 0 4.76 0 0 Z M-19 29 C-18.34 29.66 -17.68 30.32 -17 31 C-17 30.34 -17 29.68 -17 29 C-17.66 29 -18.32 29 -19 29 Z " fill="#A4A4A4" transform="translate(261,174)"/>
<path d="M0 0 C6.75 -0.125 6.75 -0.125 9 1 C9 3.64 9 6.28 9 9 C10.32 9 11.64 9 13 9 C13.66 10.32 14.32 11.64 15 13 C15.99 12.01 16.98 11.02 18 10 C18.66 10.33 19.32 10.66 20 11 C19.360625 11.598125 18.72125 12.19625 18.0625 12.8125 C15.36967938 15.66852187 15.03835658 17.48218611 14.75 21.375 C15.01580824 25.22921953 15.79054506 26.90676308 18 30 C18.33 30.66 18.66 31.32 19 32 C18.401875 31.773125 17.80375 31.54625 17.1875 31.3125 C16.465625 31.209375 15.74375 31.10625 15 31 C14.5875 31.474375 14.175 31.94875 13.75 32.4375 C10.85857468 35.01912975 7.76351815 34.18509106 4 34 C4 33.67 4 33.34 4 33 C6.64 32.67 9.28 32.34 12 32 C12 27.05 12 22.1 12 17 C11.34 17.33 10.68 17.66 10 18 C10 20.31 10 22.62 10 25 C9.01 24.67 8.02 24.34 7 24 C7 21.36 7 18.72 7 16 C8.65 16 10.3 16 12 16 C12 14.02 12 12.04 12 10 C10.68 10 9.36 10 8 10 C8 7.36 8 4.72 8 2 C5.03 2 2.06 2 -1 2 C-0.67 1.34 -0.34 0.68 0 0 Z " fill="#D9D9D9" transform="translate(158,179)"/>
<path d="M0 0 C0 0.33 0 0.66 0 1 C-0.92232422 1.03867188 -0.92232422 1.03867188 -1.86328125 1.078125 C-2.67152344 1.13484375 -3.47976562 1.1915625 -4.3125 1.25 C-5.11300781 1.29640625 -5.91351563 1.3428125 -6.73828125 1.390625 C-9.11511291 1.82934012 -9.11511291 1.82934012 -10.71875 3.71875 C-12.14750009 6.26262212 -12.69665635 8.38045251 -13.1875 11.25 C-13.34605469 12.14203125 -13.50460938 13.0340625 -13.66796875 13.953125 C-13.77753906 14.62859375 -13.88710937 15.3040625 -14 16 C-14.99 16 -15.98 16 -17 16 C-17 17.98 -17 19.96 -17 22 C-15.68 22 -14.36 22 -13 22 C-13 27.28 -13 32.56 -13 38 C-10.69 38 -8.38 38 -6 38 C-6 33.05 -6 28.1 -6 23 C-5.34 23.33 -4.68 23.66 -4 24 C-4.33 28.95 -4.66 33.9 -5 39 C-8.3 39 -11.6 39 -15 39 C-15.03738281 37.95199219 -15.07476562 36.90398437 -15.11328125 35.82421875 C-15.17894515 34.44527695 -15.24539235 33.06637229 -15.3125 31.6875 C-15.33505859 30.99720703 -15.35761719 30.30691406 -15.38085938 29.59570312 C-15.53274266 25.56442266 -15.53274266 25.56442266 -17.5546875 22.21484375 C-18.27011719 21.61349609 -18.27011719 21.61349609 -19 21 C-18.8125 17.875 -18.8125 17.875 -18 15 C-17.34 14.67 -16.68 14.34 -16 14 C-15.45941088 11.78063339 -15.45941088 11.78063339 -15.125 9.1875 C-14.35787898 4.9592739 -13.66935674 2.55743046 -10 0 C-6.30581799 -1.231394 -3.7943739 -0.64432764 0 0 Z " fill="#C5C5C5" transform="translate(130,173)"/>
<path d="M0 0 C2.46800047 1.15173355 4.04783565 2.04783565 6 4 C6.2528288 6.51064876 6.37024359 8.86361315 6.375 11.375 C6.39949219 12.04789063 6.42398438 12.72078125 6.44921875 13.4140625 C6.46937709 16.82754088 6.25328396 18.66695853 4.1640625 21.4140625 C0.97518242 23.7510396 -1.64976007 24.15541467 -5.5 24.1875 C-6.66015625 24.20876953 -6.66015625 24.20876953 -7.84375 24.23046875 C-10 24 -10 24 -13 22 C-12.26394531 22.02320313 -11.52789062 22.04640625 -10.76953125 22.0703125 C-9.30580078 22.09738281 -9.30580078 22.09738281 -7.8125 22.125 C-6.36810547 22.15980469 -6.36810547 22.15980469 -4.89453125 22.1953125 C-1.87187222 21.9913544 0.26769985 21.26874632 3 20 C3 19.01 3 18.02 3 17 C-1.06368679 16.22596442 -4.86425173 15.9015298 -9 16 C-9.66 14.68 -10.32 13.36 -11 12 C-5.72 12 -0.44 12 5 12 C4.54625 10.576875 4.0925 9.15375 3.625 7.6875 C3.36976563 6.88699219 3.11453125 6.08648437 2.8515625 5.26171875 C2.01168189 2.77275472 2.01168189 2.77275472 0 0 Z " fill="#C1C1C1" transform="translate(190,189)"/>
<path d="M0 0 C7.875 0.875 7.875 0.875 9 2 C9.1875 5.4375 9.1875 5.4375 9 9 C8.34 9.66 7.68 10.32 7 11 C4.5625 10.9375 4.5625 10.9375 2 10 C0.125 7.75 0.125 7.75 -1 5 C-0.6875 2.1875 -0.6875 2.1875 0 0 Z " fill="#323232" transform="translate(130,174)"/>
<path d="M0 0 C0.99 0 1.98 0 3 0 C2.91621094 0.63808594 2.83242187 1.27617187 2.74609375 1.93359375 C2.64425781 2.75988281 2.54242188 3.58617187 2.4375 4.4375 C2.33308594 5.26121094 2.22867188 6.08492187 2.12109375 6.93359375 C2.08113281 7.61550781 2.04117188 8.29742187 2 9 C2.33 9.33 2.66 9.66 3 10 C3 10.99 3 11.98 3 13 C0 15.1875 0 15.1875 -3 17 C-2.34 15.68 -1.68 14.36 -1 13 C-4.31371 10.79086 -5.3446021 10.77518447 -9.1875 10.875 C-10.53908203 10.90207031 -10.53908203 10.90207031 -11.91796875 10.9296875 C-12.94857422 10.96449219 -12.94857422 10.96449219 -14 11 C-14.33 10.01 -14.66 9.02 -15 8 C-9.72 8 -4.44 8 1 8 C0.67 5.36 0.34 2.72 0 0 Z " fill="#DCDCDC" transform="translate(242,194)"/>
<path d="M0 0 C1.875 1.6875 1.875 1.6875 3 4 C2.875 7.125 2.875 7.125 2 10 C-1.48868651 12.32579101 -2.89718519 12.41865457 -7 12 C-9.375 10.875 -9.375 10.875 -11 9 C-11.47350184 5.75313026 -11.64576592 3.89177198 -9.6875 1.1875 C-6.28554371 -1.20646924 -3.84172565 -1.24856084 0 0 Z M-7 1 C-9.35014158 3.837578 -9.35014158 3.837578 -8.6875 7.125 C-8.29355679 9.88086422 -8.29355679 9.88086422 -7 11 C-4.2040342 11.29431219 -2.56287181 11.33772308 -0.125 9.875 C1.29788457 7.9152361 1.29788457 7.9152361 0.75 4.875 C0.29066476 2.12209159 0.29066476 2.12209159 -1 1 C-3.95804573 0.66659529 -3.95804573 0.66659529 -7 1 Z " fill="#FFEDED" transform="translate(284,201)"/>
<path d="M0 0 C3.3 0 6.6 0 10 0 C10 0.99 10 1.98 10 3 C9.67 2.34 9.34 1.68 9 1 C6.36 1 3.72 1 1 1 C1 8.59 1 16.18 1 24 C-1.86910051 21.13089949 -1.4813693 18.8143074 -1.75 14.8125 C-1.84796875 13.51957031 -1.9459375 12.22664062 -2.046875 10.89453125 C-1.99700678 6.75131344 -1.31163071 3.88948953 0 0 Z " fill="#F0F0F0" transform="translate(198,188)"/>
<path d="M0 0 C6.75 -0.125 6.75 -0.125 9 1 C9 3.64 9 6.28 9 9 C10.32 9 11.64 9 13 9 C13 11.64 13 14.28 13 17 C12.01 17.33 11.02 17.66 10 18 C10 20.31 10 22.62 10 25 C9.01 24.67 8.02 24.34 7 24 C7 21.36 7 18.72 7 16 C8.65 16 10.3 16 12 16 C12 14.02 12 12.04 12 10 C10.68 10 9.36 10 8 10 C8 7.36 8 4.72 8 2 C5.03 2 2.06 2 -1 2 C-0.67 1.34 -0.34 0.68 0 0 Z " fill="#BDBDBD" transform="translate(158,179)"/>
<path d="M0 0 C0.66 0.33 1.32 0.66 2 1 C1.401875 1.495 0.80375 1.99 0.1875 2.5 C-2.69651861 5.79602127 -3.61871542 8.85614626 -5 13 C-5.33 13 -5.66 13 -6 13 C-5.67 9.04 -5.34 5.08 -5 1 C-4.34 1.66 -3.68 2.32 -3 3 C-2.01 2.01 -1.02 1.02 0 0 Z " fill="#E0E0E0" transform="translate(176,189)"/>
<path d="M0 0 C3.63 0 7.26 0 11 0 C11 0.66 11 1.32 11 2 C7.7 2.33 4.4 2.66 1 3 C0.67 2.01 0.34 1.02 0 0 Z " fill="#E8E8E8" transform="translate(227,202)"/>
<path d="M0 0 C1.10868317 3.32604951 1.54177532 6.53058454 2 10 C0.68 9.34 -0.64 8.68 -2 8 C-2.125 5.125 -2.125 5.125 -2 2 C-1.34 1.34 -0.68 0.68 0 0 Z " fill="#FFF8F8" transform="translate(275,202)"/>
<path d="M0 0 C2.31 0.33 4.62 0.66 7 1 C7 1.66 7 2.32 7 3 C4.36 3 1.72 3 -1 3 C-0.67 2.01 -0.34 1.02 0 0 Z " fill="#C2C2C2" transform="translate(181,194)"/>
<path d="M0 0 C0.33 0.66 0.66 1.32 1 2 C-1.64 2 -4.28 2 -7 2 C-7 1.34 -7 0.68 -7 0 C-4.30234372 -1.34882814 -2.84835666 -0.80338265 0 0 Z " fill="#C5C5C5" transform="translate(234,195)"/>
</svg>
